<mxfile host="app.diagrams.net" modified="2021-01-07T10:23:02.674Z" agent="5.0 (Windows NT 10.0; WOW64) AppleWebKit/537.36 (KHTML, like Gecko) coc_coc_browser/91.0.146 Chrome/85.0.4183.146 Safari/537.36" etag="7x0TB2rBmFZawOujMSa2" version="14.1.8" type="github">
  <diagram id="2knTgJoDHxA28MaCo3Mi" name="Page-1">
    <mxGraphModel dx="994" dy="524" grid="1" gridSize="10" guides="1" tooltips="1" connect="1" arrows="1" fold="1" page="1" pageScale="1" pageWidth="1654" pageHeight="2336" math="0" shadow="0">
      <root>
        <mxCell id="0" />
        <mxCell id="1" parent="0" />
        <mxCell id="s_vO13bZfQRbD7eqjtN0-29" value="nhận hàng ,done hóa&amp;nbsp;đơn" style="rhombus;whiteSpace=wrap;html=1;" vertex="1" parent="1">
          <mxGeometry x="240" y="970" width="120" height="80" as="geometry" />
        </mxCell>
        <mxCell id="s_vO13bZfQRbD7eqjtN0-38" value="" style="ellipse;shape=doubleEllipse;whiteSpace=wrap;html=1;aspect=fixed;" vertex="1" parent="1">
          <mxGeometry x="390" y="290" width="20" height="20" as="geometry" />
        </mxCell>
        <mxCell id="s_vO13bZfQRbD7eqjtN0-39" style="edgeStyle=orthogonalEdgeStyle;rounded=0;orthogonalLoop=1;jettySize=auto;html=1;exitX=0.5;exitY=1;exitDx=0;exitDy=0;" edge="1" parent="1" source="s_vO13bZfQRbD7eqjtN0-38" target="s_vO13bZfQRbD7eqjtN0-38">
          <mxGeometry relative="1" as="geometry" />
        </mxCell>
        <mxCell id="s_vO13bZfQRbD7eqjtN0-40" value="" style="edgeStyle=segmentEdgeStyle;endArrow=classic;html=1;" edge="1" parent="1">
          <mxGeometry width="50" height="50" relative="1" as="geometry">
            <mxPoint x="400" y="310" as="sourcePoint" />
            <mxPoint x="400" y="380" as="targetPoint" />
          </mxGeometry>
        </mxCell>
        <mxCell id="s_vO13bZfQRbD7eqjtN0-41" value="tạo hóa&amp;nbsp;đơn cho khách" style="ellipse;whiteSpace=wrap;html=1;" vertex="1" parent="1">
          <mxGeometry x="340" y="380" width="120" height="40" as="geometry" />
        </mxCell>
        <mxCell id="s_vO13bZfQRbD7eqjtN0-42" style="edgeStyle=orthogonalEdgeStyle;rounded=0;orthogonalLoop=1;jettySize=auto;html=1;exitX=0.5;exitY=1;exitDx=0;exitDy=0;" edge="1" parent="1" source="s_vO13bZfQRbD7eqjtN0-41">
          <mxGeometry relative="1" as="geometry">
            <mxPoint x="400" y="460" as="targetPoint" />
          </mxGeometry>
        </mxCell>
        <mxCell id="s_vO13bZfQRbD7eqjtN0-43" style="edgeStyle=orthogonalEdgeStyle;rounded=0;orthogonalLoop=1;jettySize=auto;html=1;exitX=0.5;exitY=1;exitDx=0;exitDy=0;" edge="1" parent="1" source="s_vO13bZfQRbD7eqjtN0-45">
          <mxGeometry relative="1" as="geometry">
            <mxPoint x="400" y="510" as="targetPoint" />
          </mxGeometry>
        </mxCell>
        <mxCell id="s_vO13bZfQRbD7eqjtN0-44" value="yes&lt;br&gt;" style="edgeStyle=orthogonalEdgeStyle;rounded=0;orthogonalLoop=1;jettySize=auto;html=1;exitX=0.5;exitY=1;exitDx=0;exitDy=0;" edge="1" parent="1" source="s_vO13bZfQRbD7eqjtN0-45">
          <mxGeometry relative="1" as="geometry">
            <mxPoint x="400" y="610" as="targetPoint" />
          </mxGeometry>
        </mxCell>
        <mxCell id="s_vO13bZfQRbD7eqjtN0-45" value="tìm kiếm tên khách" style="rhombus;whiteSpace=wrap;html=1;" vertex="1" parent="1">
          <mxGeometry x="360" y="450" width="80" height="70" as="geometry" />
        </mxCell>
        <mxCell id="s_vO13bZfQRbD7eqjtN0-46" value="" style="edgeStyle=elbowEdgeStyle;elbow=vertical;endArrow=classic;html=1;exitX=1;exitY=0.5;exitDx=0;exitDy=0;" edge="1" parent="1" source="s_vO13bZfQRbD7eqjtN0-45">
          <mxGeometry width="50" height="50" relative="1" as="geometry">
            <mxPoint x="400" y="520" as="sourcePoint" />
            <mxPoint x="580" y="520" as="targetPoint" />
            <Array as="points">
              <mxPoint x="490" y="485" />
            </Array>
          </mxGeometry>
        </mxCell>
        <mxCell id="s_vO13bZfQRbD7eqjtN0-47" value="No&lt;br&gt;" style="edgeLabel;html=1;align=center;verticalAlign=middle;resizable=0;points=[];" vertex="1" connectable="0" parent="s_vO13bZfQRbD7eqjtN0-46">
          <mxGeometry x="-0.297" y="-4" relative="1" as="geometry">
            <mxPoint as="offset" />
          </mxGeometry>
        </mxCell>
        <mxCell id="s_vO13bZfQRbD7eqjtN0-48" style="edgeStyle=orthogonalEdgeStyle;rounded=0;orthogonalLoop=1;jettySize=auto;html=1;exitX=0.5;exitY=1;exitDx=0;exitDy=0;" edge="1" parent="1" source="s_vO13bZfQRbD7eqjtN0-49" target="s_vO13bZfQRbD7eqjtN0-51">
          <mxGeometry relative="1" as="geometry">
            <mxPoint x="400" y="730" as="targetPoint" />
          </mxGeometry>
        </mxCell>
        <mxCell id="s_vO13bZfQRbD7eqjtN0-49" value="điền thông tin&amp;nbsp;đơn hàng(cân năng ,loại hàng)" style="ellipse;whiteSpace=wrap;html=1;" vertex="1" parent="1">
          <mxGeometry x="340" y="610" width="120" height="60" as="geometry" />
        </mxCell>
        <mxCell id="s_vO13bZfQRbD7eqjtN0-50" style="edgeStyle=orthogonalEdgeStyle;rounded=0;orthogonalLoop=1;jettySize=auto;html=1;" edge="1" parent="1" source="s_vO13bZfQRbD7eqjtN0-51">
          <mxGeometry relative="1" as="geometry">
            <mxPoint x="400" y="830" as="targetPoint" />
          </mxGeometry>
        </mxCell>
        <mxCell id="s_vO13bZfQRbD7eqjtN0-51" value="tạo&amp;nbsp;đơn cập nhật giờ lấy hàng ,ngày dự&amp;nbsp;đình hoàn thành lên&amp;nbsp;phần hóa&amp;nbsp;đơn&amp;nbsp;" style="ellipse;whiteSpace=wrap;html=1;" vertex="1" parent="1">
          <mxGeometry x="340" y="720" width="120" height="60" as="geometry" />
        </mxCell>
        <mxCell id="s_vO13bZfQRbD7eqjtN0-52" style="edgeStyle=orthogonalEdgeStyle;rounded=0;orthogonalLoop=1;jettySize=auto;html=1;exitX=0.5;exitY=1;exitDx=0;exitDy=0;" edge="1" parent="1">
          <mxGeometry relative="1" as="geometry">
            <mxPoint x="510" y="1050" as="sourcePoint" />
            <mxPoint x="510" y="1050" as="targetPoint" />
          </mxGeometry>
        </mxCell>
        <mxCell id="s_vO13bZfQRbD7eqjtN0-53" style="edgeStyle=orthogonalEdgeStyle;rounded=0;orthogonalLoop=1;jettySize=auto;html=1;exitX=0.5;exitY=1;exitDx=0;exitDy=0;" edge="1" parent="1">
          <mxGeometry relative="1" as="geometry">
            <mxPoint x="510" y="1050" as="sourcePoint" />
            <mxPoint x="510" y="1050" as="targetPoint" />
          </mxGeometry>
        </mxCell>
        <mxCell id="s_vO13bZfQRbD7eqjtN0-54" value="" style="rounded=0;whiteSpace=wrap;html=1;" vertex="1" parent="1">
          <mxGeometry x="340" y="830" width="120" height="10" as="geometry" />
        </mxCell>
        <mxCell id="s_vO13bZfQRbD7eqjtN0-55" value="khách&amp;nbsp;đặt trực tiếp" style="edgeStyle=segmentEdgeStyle;endArrow=classic;html=1;exitX=0;exitY=0.5;exitDx=0;exitDy=0;" edge="1" parent="1" source="s_vO13bZfQRbD7eqjtN0-54">
          <mxGeometry width="50" height="50" relative="1" as="geometry">
            <mxPoint x="400" y="1070" as="sourcePoint" />
            <mxPoint x="310" y="980" as="targetPoint" />
          </mxGeometry>
        </mxCell>
        <mxCell id="s_vO13bZfQRbD7eqjtN0-56" value="" style="edgeStyle=segmentEdgeStyle;endArrow=classic;html=1;exitX=1;exitY=0.75;exitDx=0;exitDy=0;entryX=0.5;entryY=0;entryDx=0;entryDy=0;" edge="1" parent="1" source="s_vO13bZfQRbD7eqjtN0-54">
          <mxGeometry width="50" height="50" relative="1" as="geometry">
            <mxPoint x="400" y="1070" as="sourcePoint" />
            <mxPoint x="510" y="990" as="targetPoint" />
          </mxGeometry>
        </mxCell>
        <mxCell id="s_vO13bZfQRbD7eqjtN0-57" value="khách&amp;nbsp;đặt online" style="edgeLabel;html=1;align=center;verticalAlign=middle;resizable=0;points=[];" vertex="1" connectable="0" parent="s_vO13bZfQRbD7eqjtN0-56">
          <mxGeometry x="0.1269" y="-4" relative="1" as="geometry">
            <mxPoint as="offset" />
          </mxGeometry>
        </mxCell>
        <mxCell id="s_vO13bZfQRbD7eqjtN0-58" value="&#xa;&#xa;&lt;span style=&quot;color: rgb(0, 0, 0); font-family: helvetica; font-size: 12px; font-style: normal; font-weight: 400; letter-spacing: normal; text-align: center; text-indent: 0px; text-transform: none; word-spacing: 0px; background-color: rgb(248, 249, 250); display: inline; float: none;&quot;&gt;đặt ship thu hàng,&lt;/span&gt;&lt;br style=&quot;color: rgb(0, 0, 0); font-family: helvetica; font-size: 12px; font-style: normal; font-weight: 400; letter-spacing: normal; text-align: center; text-indent: 0px; text-transform: none; word-spacing: 0px; background-color: rgb(248, 249, 250);&quot;&gt;&lt;span style=&quot;color: rgb(0, 0, 0); font-family: helvetica; font-size: 12px; font-style: normal; font-weight: 400; letter-spacing: normal; text-align: center; text-indent: 0px; text-transform: none; word-spacing: 0px; background-color: rgb(248, 249, 250); display: inline; float: none;&quot;&gt;cập nhật phí lên hóa&amp;nbsp;đơn&lt;/span&gt;&#xa;&#xa;" style="rhombus;whiteSpace=wrap;html=1;" vertex="1" parent="1">
          <mxGeometry x="450" y="970" width="120" height="80" as="geometry" />
        </mxCell>
        <mxCell id="s_vO13bZfQRbD7eqjtN0-59" value="" style="edgeStyle=elbowEdgeStyle;elbow=vertical;endArrow=classic;html=1;exitX=0.5;exitY=1;exitDx=0;exitDy=0;" edge="1" parent="1" source="s_vO13bZfQRbD7eqjtN0-58">
          <mxGeometry width="50" height="50" relative="1" as="geometry">
            <mxPoint x="510" y="1072" as="sourcePoint" />
            <mxPoint x="430" y="1130" as="targetPoint" />
            <Array as="points">
              <mxPoint x="470" y="1090" />
            </Array>
          </mxGeometry>
        </mxCell>
        <mxCell id="s_vO13bZfQRbD7eqjtN0-60" value="" style="edgeStyle=elbowEdgeStyle;elbow=vertical;endArrow=classic;html=1;exitX=0.5;exitY=1;exitDx=0;exitDy=0;entryX=0.39;entryY=-0.06;entryDx=0;entryDy=0;entryPerimeter=0;" edge="1" parent="1" target="s_vO13bZfQRbD7eqjtN0-61">
          <mxGeometry width="50" height="50" relative="1" as="geometry">
            <mxPoint x="300" y="1050" as="sourcePoint" />
            <mxPoint x="390" y="1120" as="targetPoint" />
            <Array as="points">
              <mxPoint x="350" y="1090" />
            </Array>
          </mxGeometry>
        </mxCell>
        <mxCell id="s_vO13bZfQRbD7eqjtN0-61" value="" style="shape=ext;double=1;rounded=0;whiteSpace=wrap;html=1;" vertex="1" parent="1">
          <mxGeometry x="360" y="1130" width="120" height="20" as="geometry" />
        </mxCell>
        <mxCell id="s_vO13bZfQRbD7eqjtN0-62" style="edgeStyle=orthogonalEdgeStyle;rounded=0;orthogonalLoop=1;jettySize=auto;html=1;exitX=0.5;exitY=1;exitDx=0;exitDy=0;" edge="1" parent="1" source="s_vO13bZfQRbD7eqjtN0-61" target="s_vO13bZfQRbD7eqjtN0-61">
          <mxGeometry relative="1" as="geometry" />
        </mxCell>
        <mxCell id="s_vO13bZfQRbD7eqjtN0-63" value="" style="endArrow=classic;html=1;exitX=0.5;exitY=0;exitDx=0;exitDy=0;" edge="1" parent="1" source="s_vO13bZfQRbD7eqjtN0-65">
          <mxGeometry width="50" height="50" relative="1" as="geometry">
            <mxPoint x="390" y="1270" as="sourcePoint" />
            <mxPoint x="NaN" y="NaN" as="targetPoint" />
          </mxGeometry>
        </mxCell>
        <mxCell id="s_vO13bZfQRbD7eqjtN0-65" value="" style="ellipse;shape=doubleEllipse;whiteSpace=wrap;html=1;aspect=fixed;" vertex="1" parent="1">
          <mxGeometry x="404" y="1180" width="32" height="32" as="geometry" />
        </mxCell>
        <mxCell id="s_vO13bZfQRbD7eqjtN0-66" value="" style="endArrow=classic;html=1;entryX=0.5;entryY=0;entryDx=0;entryDy=0;" edge="1" parent="1" target="s_vO13bZfQRbD7eqjtN0-65">
          <mxGeometry width="50" height="50" relative="1" as="geometry">
            <mxPoint x="420" y="1150" as="sourcePoint" />
            <mxPoint x="440" y="1220" as="targetPoint" />
          </mxGeometry>
        </mxCell>
        <mxCell id="s_vO13bZfQRbD7eqjtN0-68" value="" style="edgeStyle=segmentEdgeStyle;endArrow=classic;html=1;exitX=0.5;exitY=1;exitDx=0;exitDy=0;entryX=1;entryY=0.5;entryDx=0;entryDy=0;" edge="1" parent="1" target="s_vO13bZfQRbD7eqjtN0-49">
          <mxGeometry width="50" height="50" relative="1" as="geometry">
            <mxPoint x="580" y="580" as="sourcePoint" />
            <mxPoint x="440" y="510" as="targetPoint" />
            <Array as="points">
              <mxPoint x="580" y="640" />
            </Array>
          </mxGeometry>
        </mxCell>
        <mxCell id="s_vO13bZfQRbD7eqjtN0-69" value="&lt;span&gt;tạo tài khoản khách hàng&lt;/span&gt;" style="ellipse;whiteSpace=wrap;html=1;" vertex="1" parent="1">
          <mxGeometry x="520" y="520" width="120" height="60" as="geometry" />
        </mxCell>
        <mxCell id="s_vO13bZfQRbD7eqjtN0-70" value="&lt;font style=&quot;font-size: 19px&quot;&gt;tạo hóa&amp;nbsp;đơn khách hàng&lt;/font&gt;" style="text;html=1;strokeColor=none;fillColor=none;align=center;verticalAlign=middle;whiteSpace=wrap;rounded=0;" vertex="1" parent="1">
          <mxGeometry x="120" y="280" width="150" height="110" as="geometry" />
        </mxCell>
        <mxCell id="s_vO13bZfQRbD7eqjtN0-73" style="edgeStyle=orthogonalEdgeStyle;rounded=0;orthogonalLoop=1;jettySize=auto;html=1;exitX=0.5;exitY=1;exitDx=0;exitDy=0;" edge="1" parent="1" source="s_vO13bZfQRbD7eqjtN0-72" target="s_vO13bZfQRbD7eqjtN0-74">
          <mxGeometry relative="1" as="geometry">
            <mxPoint x="419" y="1330" as="targetPoint" />
          </mxGeometry>
        </mxCell>
        <mxCell id="s_vO13bZfQRbD7eqjtN0-72" value="" style="ellipse;shape=doubleEllipse;whiteSpace=wrap;html=1;aspect=fixed;" vertex="1" parent="1">
          <mxGeometry x="404" y="1250" width="30" height="30" as="geometry" />
        </mxCell>
        <mxCell id="s_vO13bZfQRbD7eqjtN0-74" value="điền&amp;nbsp;đày&amp;nbsp;đủ thông tin&amp;nbsp;đơn hàng(cân năng hàng hóa)" style="ellipse;whiteSpace=wrap;html=1;" vertex="1" parent="1">
          <mxGeometry x="359" y="1340" width="120" height="80" as="geometry" />
        </mxCell>
      </root>
    </mxGraphModel>
  </diagram>
</mxfile>
